<svg xmlns="http://www.w3.org/2000/svg" style="display: none;">
  
    <symbol id="icon-code" viewBox="0 0 512 512">
      <path d="m195 110c5 4 8 10 8 16c0 6-3 11-8 15c0 0-126 115-126 115c0 0 126 116 126 116c5 4 8 9 8 15c0 6-3 12-8 16c-11 11-21 11-31 0c0 0-164-147-164-147c0 0 164-146 164-146c10-11 20-11 31 0m154 0c0 0 163 146 163 146c0 0-163 147-163 147c-11 11-21 11-32 0c-10-10-10-21 0-31c0 0 127-116 127-116c0 0-127-115-127-115c-10-10-10-21 0-31c11-11 21-11 32 0"/>
    </symbol>
  
    <symbol id="icon-floppy" viewBox="0 0 512 512">
      <path d="m388 51c0 0 73 80 73 80c0 0 0 279 0 279c0 13-5 25-15 35c-10 11-22 16-36 16c0 0-308 0-308 0c-13 0-25-5-35-16c-11-10-16-22-16-35c0 0 0-308 0-308c0-14 5-26 16-36c10-10 22-15 35-15c0 0 286 0 286 0m-30 154c0 0 0-128 0-128c0 0-204 0-204 0c0 0 0 128 0 128c0 7 2 13 7 18c5 5 11 7 18 7c0 0 154 0 154 0c7 0 13-2 18-7c5-5 7-11 7-18m-25-103c0 0 0 103 0 103c0 0-51 0-51 0c0 0 0-103 0-103c0 0 51 0 51 0"/>
    </symbol>
  
    <symbol id="icon-arrows-ccw" viewBox="0 0 512 512">
      <path d="m141 364c0 0 60-60 60-60c0 0 0 150 0 150c0 0-142-9-142-9c0 0 45-44 45-44c-39-41-59-91-58-148c1-57 21-107 62-148c34-34 75-53 122-59c0 0 2 52 2 52c-34 6-63 21-88 45c-30 30-45 67-46 109c0 43 14 80 43 112m170-307c0 0 142 9 142 9c0 0-45 44-45 44c39 41 59 91 58 148c-1 57-21 107-62 148c-32 33-73 53-122 60c0 0-1-53-1-53c33-6 62-21 87-45c30-30 45-67 46-109c0-43-14-80-43-112c0 0-59 60-59 60c0 0-1-150-1-150"/>
    </symbol>
  
    <symbol id="icon-install" viewBox="0 0 512 512">
      <path d="m478 279c8 17 11 34 7 49c0 0-17 94-17 94c-1 7-4 13-10 18c-6 5-12 7-20 7c0 0-364 0-364 0c-8 0-15-2-20-7c-6-5-9-11-10-18c0 0-18-94-18-94c-2-17 0-34 8-49c0 0 80-192 80-192c8-16 20-24 37-24c0 0 54 0 54 0c0 0-11 105-11 105c0 0-68 0-68 0c0 0 130 107 130 107c0 0 131-107 131-107c0 0-70 0-70 0c0 0-9-105-9-105c0 0 52 0 52 0c17 0 30 8 38 24c0 0 80 192 80 192m-35 67c1-7-1-14-5-19c-4-6-10-9-17-9c0 0-330 0-330 0c-8 0-13 3-17 9c-5 5-6 12-6 19c0 0 8 38 8 38c0 8 4 14 9 19c6 5 12 8 19 8c0 0 303 0 303 0c8 0 15-3 20-8c6-5 9-11 10-19c0 0 6-38 6-38"/>
    </symbol>
  
    <symbol id="icon-list-add" viewBox="0 0 512 512">
      <path d="m179 230c8 0 14 3 19 8c4 5 7 11 7 18c0 7-3 13-8 18c-5 5-11 8-18 8c0 0-153 0-153 0c-7 0-13-3-18-8c-5-5-8-11-8-18c0-7 2-13 7-18c5-5 11-8 19-8c0 0 153 0 153 0m0 103c8 0 14 2 19 7c4 6 7 12 7 18c0 7-3 13-8 18c-5 5-11 8-18 8c0 0-153 0-153 0c-7 0-13-3-18-8c-5-5-8-11-8-18c0-6 2-12 7-18c5-5 11-7 19-7c0 0 153 0 153 0m318-103c10 0 15 9 15 26c0 17-5 26-15 26c0 0-87 0-87 0c0 0 0 87 0 87c0 10-9 15-26 15c-17 0-26-5-26-15c0 0 0-87 0-87c0 0-84 0-84 0c-10 0-15-9-15-26c0-17 5-26 15-26c0 0 84 0 84 0c0 0 0-87 0-87c0-10 9-15 26-15c17 0 26 5 26 15c0 0 0 87 0 87c0 0 87 0 87 0m-318-102c8 0 14 3 19 8c4 5 7 11 7 18c0 6-3 12-8 18c-5 5-11 7-18 7c0 0-153 0-153 0c-7 0-13-2-18-7c-5-6-8-12-8-18c0-7 2-13 7-18c5-5 11-8 19-8c0 0 153 0 153 0"/>
    </symbol>
  
    <symbol id="icon-cw" viewBox="0 0 512 512">
      <path d="m224 46c58 0 107 20 147 59c41 40 62 88 63 145c0 0 63 0 63 0c0 0-95 105-95 105c0 0-94-105-94-105c0 0 74 0 74 0c-1-42-17-78-48-108c-31-29-67-44-110-44c-43 0-80 16-110 46c-31 31-46 68-46 112c0 43 15 80 46 111c30 30 67 46 110 46c36 0 67-11 93-31c0 0 36 39 36 39c-37 30-80 45-129 45c-57 0-106-21-147-62c-41-40-62-90-62-148c0-58 21-108 62-148c41-41 90-62 147-62"/>
    </symbol>
  
    <symbol id="icon-arrows" viewBox="0 0 512 512">
      <path d="m512 256c0 5-2 9-5 13l-74 73c-3 4-7 5-12 5-5 0-10-1-13-5-4-4-6-8-6-13l0-36-109 0 0 109 36 0c5 0 9 2 13 6 4 3 5 8 5 13 0 5-1 9-5 12l-73 74c-4 3-8 5-13 5-5 0-9-2-13-5l-73-74c-4-3-5-7-5-12 0-5 1-10 5-13 4-4 8-6 13-6l36 0 0-109-109 0 0 36c0 5-2 9-6 13-3 4-8 5-13 5-5 0-9-1-12-5l-74-73c-3-4-5-8-5-13 0-5 2-9 5-13l74-73c3-4 7-5 12-5 5 0 10 1 13 5 4 4 6 8 6 13l0 36 109 0 0-109-36 0c-5 0-9-2-13-6-4-3-5-8-5-13 0-5 1-9 5-12l73-74c4-3 8-5 13-5 5 0 9 2 13 5l73 74c4 3 5 7 5 12 0 5-1 10-5 13-4 4-8 6-13 6l-36 0 0 109 109 0 0-36c0-5 2-9 6-13 3-4 8-5 13-5 5 0 9 1 12 5l74 73c3 4 5 8 5 13z"/>
    </symbol>
  
    <symbol id="icon-pencil" viewBox="0 0 512 512">
      <path d="m455 150l-93-93c-5-5-14-5-20 0l-253 254l1 0l-1 0l-35 130l0 0c-2 4 0 10 3 14c5 4 11 5 16 2l0 0l128-34l0 0l0 0l254-254c5-5 5-14 0-19z m-359 265l21-76l56 56z"/>
    </symbol>
  
    <symbol id="icon-trash" viewBox="0 0 512 512">
      <path d="m388 171l-264 0c-7 0-12 5-12 12l0 256c0 6 5 12 12 12l264 0c7 0 12-6 12-12l0-256c0-7-5-12-12-12z m17-82l-101 0l0-16c0-6-5-12-12-12l-72 0c-7 0-12 6-12 12l0 16l-100 0c-7 0-13 5-13 12l0 35c0 7 6 13 13 13l297 0c6 0 12-6 12-13l0-35c0-7-6-12-12-12z"/>
    </symbol>
  
    <symbol id="icon-arrows-expand" viewBox="0 0 512 512">
      <path d="m26 344l-26 158c0 2 1 5 3 7c0 0 0 0 0 0c2 2 5 3 7 3l158-27c3 0 6-3 7-6c1-3 0-7-3-9l-30-31l82-82c4-4 4-9 0-13l-57-57c-3-3-9-3-12 0l-83 83l-31-31c-2-2-5-3-9-2c-3 1-5 4-6 7z m460-176l26-158c0-2-1-5-3-7c0 0 0 0 0 0c-2-2-5-3-7-3l-158 27c-3 0-6 3-7 6c-1 3 0 7 3 9l30 31l-82 82c-4 4-4 9 0 13l57 57c3 3 9 3 12 0l83-83l31 31c2 2 5 3 9 2c3-1 5-4 6-7z"/>
    </symbol>
  
    <symbol id="icon-desktop" viewBox="0 0 512 512">
      <path d="m494 283l0-237c0-3-1-5-3-7-2-2-4-2-6-2l-458 0c-2 0-4 0-6 2-2 2-3 4-3 7l0 237c0 3 1 5 3 7 2 2 4 3 6 3l458 0c2 0 4-1 6-3 2-2 3-4 3-7z m36-237l0 311c0 12-4 23-13 32-9 9-20 13-32 13l-156 0c0 7 2 15 5 22 3 8 6 15 9 21 3 6 4 10 4 12 0 5-1 9-5 13-4 4-8 5-13 5l-146 0c-5 0-9-1-13-5-4-4-5-8-5-13 0-3 1-7 4-12 3-6 6-13 9-20 3-8 5-15 5-23l-156 0c-12 0-23-4-32-13-9-9-13-20-13-32l0-311c0-13 4-24 13-33 9-9 20-13 32-13l458 0c12 0 23 4 32 13 9 9 13 20 13 33z"/>
    </symbol>
  
    <symbol id="icon-tablet-portrait" viewBox="0 0 512 512">
      <path d="m399 38c0 0 0 0-1 0l0 0l-286 0l0 0c-8 0-14 7-14 16l0 404c0 9 6 16 14 16l0 0l286 0l0 0c1 0 1 0 1 0c9 0 15-7 15-16l0-404c0-9-6-16-15-16z m-144 423c-7 0-12-6-12-13c0-7 5-12 12-12c7 0 13 5 13 12c0 7-6 13-13 13z m109-38l-216 0l0-334l216 0l0 334z"/>
    </symbol>
  
    <symbol id="icon-mobile" viewBox="0 0 512 512">
      <path d="m353 5c15 0 27 5 37 15c10 10 14 22 14 36c0 0 0 400 0 400c0 13-4 25-14 36c-10 10-22 15-37 15c0 0-194 0-194 0c-14 0-26-5-36-15c-10-11-15-23-15-36c0 0 0-400 0-400c0-14 5-26 15-36c10-10 22-15 36-15c0 0 194 0 194 0m-97 481c10 0 19-2 26-7c6-5 10-11 10-18c0-8-4-14-10-19c-7-4-16-7-26-7c-10 0-18 3-25 8c-7 5-11 11-11 18c0 7 4 13 11 18c7 5 15 7 25 7m108-76c0 0 0-338 0-338c0 0-216 0-216 0c0 0 0 338 0 338c0 0 216 0 216 0"/>
    </symbol>
  
    <symbol id="icon-bell" viewBox="0 0 512 512">
      <path d="m375 217c5 12 12 21 20 27c9 6 16 10 23 11c8 1 15 5 23 12c8 6 14 16 18 28c7 21-5 49-38 82c-33 34-76 61-129 81c-56 20-107 27-152 23c-45-5-72-17-79-39c-7-18-5-37 6-56c11-20 14-39 9-57c-19-66-27-117-24-154c3-37 22-70 58-98c9-8 14-16 15-26c1-10 6-17 14-20c9-3 16-1 24 6c7 7 17 10 29 9c45-1 78 11 101 34c23 23 50 69 82 137m-95 207c30-11 57-25 81-44c24-18 41-33 51-46c10-13 14-22 13-26c-3-7-11-13-25-17c-14-3-35-4-63 0c-29 3-61 11-96 24c-35 13-65 28-89 45c-24 17-40 31-48 43c-8 12-11 21-9 27c2 4 10 8 26 11c16 4 39 4 69 2c30-2 60-8 90-19m-32-89c3-1 6-2 11-4c4-1 7-3 8-3c0 0 1 1 1 1c5 13 2 28-8 42c-11 15-26 26-46 32c-33 13-59 10-78-7c27-23 64-43 112-61"/>
    </symbol>
  
    <symbol id="icon-bell-o" viewBox="0 0 512 512">
      <path d="m261 485c0-3-2-5-5-5-11 0-21-4-29-12-8-8-12-18-12-29 0-3-2-5-5-5-3 0-4 2-4 5 0 14 5 26 14 35 10 10 22 15 36 15 3 0 5-1 5-4z m-191-83l372 0c-51-57-76-136-76-237 0-10-3-20-7-30-5-11-11-21-20-30-8-9-20-17-35-23-14-6-30-9-48-9-18 0-34 3-48 9-15 6-27 14-35 23-9 9-15 19-20 30-4 10-7 20-7 30 0 101-25 180-76 237z m424 0c0 10-4 19-11 26-7 7-16 11-26 11l-128 0c0 20-7 37-21 52-15 14-32 21-52 21-20 0-37-7-52-21-14-15-21-32-21-52l-128 0c-10 0-19-4-26-11-7-7-11-16-11-26 10-8 18-16 26-25 8-9 16-20 25-34 8-14 15-29 21-45 6-16 10-36 14-59 4-23 6-48 6-74 0-29 11-56 33-81 22-25 52-40 88-45-2-4-2-8-2-12 0-7 2-14 8-19 5-5 11-8 19-8 8 0 14 3 19 8 6 5 8 12 8 19 0 4 0 8-2 12 36 5 66 20 88 45 22 25 33 52 33 81 0 26 2 51 6 74 4 23 8 43 14 59 6 16 13 31 21 45 9 14 17 25 25 34 8 9 16 17 26 25z"/>
    </symbol>
  
    <symbol id="icon-bell-1" viewBox="0 0 512 512">
      <path d="m261 485c0-3-2-5-5-5-11 0-21-4-29-12-8-8-12-18-12-29 0-3-2-5-5-5-3 0-4 2-4 5 0 14 5 26 14 35 10 10 22 15 36 15 3 0 5-1 5-4z m233-83c0 10-4 19-11 26-7 7-16 11-26 11l-128 0c0 20-7 37-21 52-15 14-32 21-52 21-20 0-37-7-52-21-14-15-21-32-21-52l-128 0c-10 0-19-4-26-11-7-7-11-16-11-26 10-8 18-16 26-25 8-9 16-20 25-34 8-14 15-29 21-45 6-16 10-36 14-59 4-23 6-48 6-74 0-29 11-56 33-81 22-25 52-40 88-45-2-4-2-8-2-12 0-7 2-14 8-19 5-5 11-8 19-8 8 0 14 3 19 8 6 5 8 12 8 19 0 4 0 8-2 12 36 5 66 20 88 45 22 25 33 52 33 81 0 26 2 51 6 74 4 23 8 43 14 59 6 16 13 31 21 45 9 14 17 25 25 34 8 9 16 17 26 25z"/>
    </symbol>
  
</svg>
